<svg width="1220" height="2561" viewBox="0 0 1220 2561" fill="none" xmlns="http://www.w3.org/2000/svg">
<g opacity="0.8">
<g clip-path="url(#clip0_1224_1264)">
<path d="M1184.5 -6L1228.5 16" stroke="#FAB8CC" stroke-width="3"/>
<path d="M1184.5 4L1228.5 26" stroke="#FAB8CC" stroke-width="3"/>
<path d="M1184.5 14L1228.5 36" stroke="#FAB8CC" stroke-width="3"/>
<path d="M1184.5 24L1228.5 46" stroke="#FAB8CC" stroke-width="3"/>
<path d="M1184.5 34L1228.5 56" stroke="#FAB8CC" stroke-width="3"/>
<path d="M1184.5 44L1228.5 66" stroke="#FAB8CC" stroke-width="3"/>
<path d="M1184.5 54L1228.5 76" stroke="#FAB8CC" stroke-width="3"/>
<path d="M1184.5 64L1228.5 86" stroke="#FAB8CC" stroke-width="3"/>
<path d="M1184.5 74L1228.5 96" stroke="#FAB8CC" stroke-width="3"/>
<path d="M1184.5 84L1228.5 106" stroke="#FAB8CC" stroke-width="3"/>
<path d="M1184.5 94L1228.5 116" stroke="#FAB8CC" stroke-width="3"/>
<path d="M1184.5 104L1228.5 126" stroke="#FAB8CC" stroke-width="3"/>
<path d="M1184.5 114L1228.5 136" stroke="#FAB8CC" stroke-width="3"/>
<path d="M1184.5 124L1228.5 146" stroke="#FAB8CC" stroke-width="3"/>
<path d="M1184.5 134L1228.5 156" stroke="#FAB8CC" stroke-width="3"/>
<path d="M1184.5 144L1228.5 166" stroke="#FAB8CC" stroke-width="3"/>
<path d="M1184.5 154L1228.5 176" stroke="#FAB8CC" stroke-width="3"/>
<path d="M1184.5 164L1228.5 186" stroke="#FAB8CC" stroke-width="3"/>
<path d="M1184.5 174L1228.5 196" stroke="#FAB8CC" stroke-width="3"/>
<path d="M1184.5 184L1228.5 206" stroke="#FAB8CC" stroke-width="3"/>
<path d="M1184.5 194L1228.5 216" stroke="#FAB8CC" stroke-width="3"/>
<path d="M1184.5 204L1228.5 226" stroke="#FAB8CC" stroke-width="3"/>
<path d="M1184.5 214L1228.5 236" stroke="#FAB8CC" stroke-width="3"/>
<path d="M1184.5 224L1228.5 246" stroke="#FAB8CC" stroke-width="3"/>
<path d="M1184.5 234L1228.5 256" stroke="#FAB8CC" stroke-width="3"/>
<path d="M1184.5 244L1228.5 266" stroke="#FAB8CC" stroke-width="3"/>
<path d="M1184.5 254L1228.5 276" stroke="#FAB8CC" stroke-width="3"/>
<path d="M1184.5 264L1228.5 286" stroke="#FAB8CC" stroke-width="3"/>
<path d="M1184.5 274L1228.5 296" stroke="#FAB8CC" stroke-width="3"/>
<path d="M1184.5 284L1228.5 306" stroke="#FAB8CC" stroke-width="3"/>
<path d="M1184.5 294L1228.5 316" stroke="#FAB8CC" stroke-width="3"/>
<path d="M1184.5 304L1228.5 326" stroke="#FAB8CC" stroke-width="3"/>
<path d="M1184.5 314L1228.5 336" stroke="#FAB8CC" stroke-width="3"/>
<path d="M1184.5 324L1228.5 346" stroke="#FAB8CC" stroke-width="3"/>
<path d="M1184.5 334L1228.5 356" stroke="#FAB8CC" stroke-width="3"/>
<path d="M1184.5 344L1228.5 366" stroke="#FAB8CC" stroke-width="3"/>
<path d="M1184.5 354L1228.5 376" stroke="#FAB8CC" stroke-width="3"/>
<path d="M1184.5 364L1228.5 386" stroke="#FAB8CC" stroke-width="3"/>
<path d="M1184.5 374L1228.5 396" stroke="#FAB8CC" stroke-width="3"/>
<path d="M1184.5 384L1228.5 406" stroke="#FAB8CC" stroke-width="3"/>
<path d="M1184.5 394L1228.5 416" stroke="#FAB8CC" stroke-width="3"/>
<path d="M1184.5 404L1228.5 426" stroke="#FAB8CC" stroke-width="3"/>
<path d="M1184.5 414L1228.5 436" stroke="#FAB8CC" stroke-width="3"/>
<path d="M1184.5 424L1228.5 446" stroke="#FAB8CC" stroke-width="3"/>
<path d="M1184.5 434L1228.5 456" stroke="#FAB8CC" stroke-width="3"/>
<path d="M1184.5 444L1228.5 466" stroke="#FAB8CC" stroke-width="3"/>
<path d="M1184.5 454L1228.5 476" stroke="#FAB8CC" stroke-width="3"/>
<path d="M1184.5 464L1228.5 486" stroke="#FAB8CC" stroke-width="3"/>
<path d="M1184.5 474L1228.5 496" stroke="#FAB8CC" stroke-width="3"/>
<path d="M1184.5 484L1228.5 506" stroke="#FAB8CC" stroke-width="3"/>
<path d="M1184.5 494L1228.5 516" stroke="#FAB8CC" stroke-width="3"/>
<path d="M1184.5 504L1228.5 526" stroke="#FAB8CC" stroke-width="3"/>
<path d="M1184.5 514L1228.5 536" stroke="#FAB8CC" stroke-width="3"/>
<path d="M1184.5 524L1228.5 546" stroke="#FAB8CC" stroke-width="3"/>
<path d="M1184.5 534L1228.5 556" stroke="#FAB8CC" stroke-width="3"/>
<path d="M1184.5 544L1228.5 566" stroke="#FAB8CC" stroke-width="3"/>
<path d="M1184.5 554L1228.5 576" stroke="#FAB8CC" stroke-width="3"/>
<path d="M1184.5 564L1228.5 586" stroke="#FAB8CC" stroke-width="3"/>
<path d="M1184.5 574L1228.5 596" stroke="#FAB8CC" stroke-width="3"/>
<path d="M1184.5 584L1228.5 606" stroke="#FAB8CC" stroke-width="3"/>
<path d="M1184.5 594L1228.5 616" stroke="#FAB8CC" stroke-width="3"/>
<path d="M1184.5 604L1228.5 626" stroke="#FAB8CC" stroke-width="3"/>
<path d="M1184.5 614L1228.5 636" stroke="#FAB8CC" stroke-width="3"/>
<path d="M1184.5 624L1228.5 646" stroke="#FAB8CC" stroke-width="3"/>
<path d="M1184.5 634L1228.5 656" stroke="#FAB8CC" stroke-width="3"/>
<path d="M1184.5 644L1228.5 666" stroke="#FAB8CC" stroke-width="3"/>
<path d="M1184.5 654L1228.5 676" stroke="#FAB8CC" stroke-width="3"/>
<path d="M1184.5 664L1228.5 686" stroke="#FAB8CC" stroke-width="3"/>
<path d="M1184.5 674L1228.5 696" stroke="#FAB8CC" stroke-width="3"/>
<path d="M1184.5 684L1228.5 706" stroke="#FAB8CC" stroke-width="3"/>
<path d="M1184.5 694L1228.5 716" stroke="#FAB8CC" stroke-width="3"/>
<path d="M1184.5 704L1228.5 726" stroke="#FAB8CC" stroke-width="3"/>
<path d="M1184.5 714L1228.5 736" stroke="#FAB8CC" stroke-width="3"/>
<path d="M1184.5 724L1228.5 746" stroke="#FAB8CC" stroke-width="3"/>
<path d="M1184.5 734L1228.5 756" stroke="#FAB8CC" stroke-width="3"/>
<path d="M1184.5 744L1228.5 766" stroke="#FAB8CC" stroke-width="3"/>
<path d="M1184.5 754L1228.5 776" stroke="#FAB8CC" stroke-width="3"/>
<path d="M1184.5 764L1228.5 786" stroke="#FAB8CC" stroke-width="3"/>
<path d="M1184.5 774L1228.5 796" stroke="#FAB8CC" stroke-width="3"/>
<path d="M1184.5 784L1228.5 806" stroke="#FAB8CC" stroke-width="3"/>
<path d="M1184.5 794L1228.5 816" stroke="#FAB8CC" stroke-width="3"/>
<path d="M1184.5 804L1228.5 826" stroke="#FAB8CC" stroke-width="3"/>
<path d="M1184.5 814L1228.5 836" stroke="#FAB8CC" stroke-width="3"/>
<path d="M1184.5 824L1228.5 846" stroke="#FAB8CC" stroke-width="3"/>
<path d="M1184.5 834L1228.5 856" stroke="#FAB8CC" stroke-width="3"/>
<path d="M1184.5 844L1228.5 866" stroke="#FAB8CC" stroke-width="3"/>
<path d="M1184.5 854L1228.5 876" stroke="#FAB8CC" stroke-width="3"/>
<path d="M1184.5 864L1228.5 886" stroke="#FAB8CC" stroke-width="3"/>
<path d="M1184.5 874L1228.5 896" stroke="#FAB8CC" stroke-width="3"/>
<path d="M1184.5 884L1228.5 906" stroke="#FAB8CC" stroke-width="3"/>
<path d="M1184.5 894L1228.5 916" stroke="#FAB8CC" stroke-width="3"/>
<path d="M1184.5 904L1228.5 926" stroke="#FAB8CC" stroke-width="3"/>
<path d="M1184.5 914L1228.5 936" stroke="#FAB8CC" stroke-width="3"/>
<path d="M1184.5 924L1228.5 946" stroke="#FAB8CC" stroke-width="3"/>
<path d="M1184.5 934L1228.5 956" stroke="#FAB8CC" stroke-width="3"/>
<path d="M1184.5 944L1228.5 966" stroke="#FAB8CC" stroke-width="3"/>
<path d="M1184.5 954L1228.5 976" stroke="#FAB8CC" stroke-width="3"/>
<path d="M1184.5 964L1228.5 986" stroke="#FAB8CC" stroke-width="3"/>
<path d="M1184.5 974L1228.5 996" stroke="#FAB8CC" stroke-width="3"/>
<path d="M1184.5 984L1228.5 1006" stroke="#FAB8CC" stroke-width="3"/>
<path d="M1184.5 994L1228.5 1016" stroke="#FAB8CC" stroke-width="3"/>
<path d="M1184.5 1004L1228.5 1026" stroke="#FAB8CC" stroke-width="3"/>
<path d="M1184.5 1014L1228.5 1036" stroke="#FAB8CC" stroke-width="3"/>
<path d="M1184.5 1024L1228.5 1046" stroke="#FAB8CC" stroke-width="3"/>
<path d="M1184.5 1034L1228.5 1056" stroke="#FAB8CC" stroke-width="3"/>
<path d="M1184.5 1044L1228.5 1066" stroke="#FAB8CC" stroke-width="3"/>
<path d="M1184.5 1054L1228.5 1076" stroke="#FAB8CC" stroke-width="3"/>
<path d="M1184.5 1064L1228.5 1086" stroke="#FAB8CC" stroke-width="3"/>
<path d="M1184.5 1074L1228.5 1096" stroke="#FAB8CC" stroke-width="3"/>
<path d="M1184.5 1084L1228.5 1106" stroke="#FAB8CC" stroke-width="3"/>
<path d="M1184.5 1094L1228.5 1116" stroke="#FAB8CC" stroke-width="3"/>
<path d="M1184.5 1104L1228.5 1126" stroke="#FAB8CC" stroke-width="3"/>
<path d="M1184.5 1114L1228.5 1136" stroke="#FAB8CC" stroke-width="3"/>
<path d="M1184.5 1124L1228.5 1146" stroke="#FAB8CC" stroke-width="3"/>
<path d="M1184.5 1134L1228.5 1156" stroke="#FAB8CC" stroke-width="3"/>
<path d="M1184.5 1144L1228.5 1166" stroke="#FAB8CC" stroke-width="3"/>
<path d="M1184.5 1154L1228.5 1176" stroke="#FAB8CC" stroke-width="3"/>
<path d="M1184.5 1164L1228.5 1186" stroke="#FAB8CC" stroke-width="3"/>
<path d="M1184.5 1174L1228.5 1196" stroke="#FAB8CC" stroke-width="3"/>
<path d="M1184.5 1184L1228.5 1206" stroke="#FAB8CC" stroke-width="3"/>
<path d="M1184.5 1194L1228.5 1216" stroke="#FAB8CC" stroke-width="3"/>
<path d="M1184.5 1204L1228.5 1226" stroke="#FAB8CC" stroke-width="3"/>
<path d="M1184.5 1214L1228.5 1236" stroke="#FAB8CC" stroke-width="3"/>
<path d="M1184.5 1224L1228.5 1246" stroke="#FAB8CC" stroke-width="3"/>
<path d="M1184.5 1234L1228.5 1256" stroke="#FAB8CC" stroke-width="3"/>
<path d="M1184.5 1244L1228.5 1266" stroke="#FAB8CC" stroke-width="3"/>
<path d="M1184.5 1254L1228.5 1276" stroke="#FAB8CC" stroke-width="3"/>
<path d="M1184.5 1264L1228.5 1286" stroke="#FAB8CC" stroke-width="3"/>
<path d="M1184.5 1274L1228.5 1296" stroke="#FAB8CC" stroke-width="3"/>
<path d="M1184.5 1284L1228.5 1306" stroke="#FAB8CC" stroke-width="3"/>
<path d="M1184.5 1294L1228.5 1316" stroke="#FAB8CC" stroke-width="3"/>
<path d="M1184.5 1304L1228.5 1326" stroke="#FAB8CC" stroke-width="3"/>
<path d="M1184.5 1314L1228.5 1336" stroke="#FAB8CC" stroke-width="3"/>
<path d="M1184.5 1324L1228.5 1346" stroke="#FAB8CC" stroke-width="3"/>
<path d="M1184.5 1334L1228.5 1356" stroke="#FAB8CC" stroke-width="3"/>
<path d="M1184.5 1344L1228.5 1366" stroke="#FAB8CC" stroke-width="3"/>
<path d="M1184.5 1354L1228.5 1376" stroke="#FAB8CC" stroke-width="3"/>
<path d="M1184.5 1364L1228.5 1386" stroke="#FAB8CC" stroke-width="3"/>
<path d="M1184.5 1374L1228.5 1396" stroke="#FAB8CC" stroke-width="3"/>
<path d="M1184.5 1384L1228.5 1406" stroke="#FAB8CC" stroke-width="3"/>
<path d="M1184.5 1394L1228.5 1416" stroke="#FAB8CC" stroke-width="3"/>
<path d="M1184.5 1404L1228.5 1426" stroke="#FAB8CC" stroke-width="3"/>
<path d="M1184.5 1414L1228.5 1436" stroke="#FAB8CC" stroke-width="3"/>
<path d="M1184.5 1424L1228.5 1446" stroke="#FAB8CC" stroke-width="3"/>
<path d="M1184.5 1434L1228.5 1456" stroke="#FAB8CC" stroke-width="3"/>
<path d="M1184.5 1444L1228.5 1466" stroke="#FAB8CC" stroke-width="3"/>
<path d="M1184.5 1454L1228.5 1476" stroke="#FAB8CC" stroke-width="3"/>
<path d="M1184.5 1464L1228.5 1486" stroke="#FAB8CC" stroke-width="3"/>
<path d="M1184.5 1474L1228.5 1496" stroke="#FAB8CC" stroke-width="3"/>
<path d="M1184.5 1484L1228.5 1506" stroke="#FAB8CC" stroke-width="3"/>
<path d="M1184.5 1494L1228.5 1516" stroke="#FAB8CC" stroke-width="3"/>
<path d="M1184.5 1504L1228.5 1526" stroke="#FAB8CC" stroke-width="3"/>
<path d="M1184.5 1514L1228.5 1536" stroke="#FAB8CC" stroke-width="3"/>
<path d="M1184.5 1524L1228.5 1546" stroke="#FAB8CC" stroke-width="3"/>
<path d="M1184.5 1534L1228.5 1556" stroke="#FAB8CC" stroke-width="3"/>
<path d="M1184.5 1544L1228.5 1566" stroke="#FAB8CC" stroke-width="3"/>
<path d="M1184.5 1554L1228.5 1576" stroke="#FAB8CC" stroke-width="3"/>
<path d="M1184.5 1564L1228.5 1586" stroke="#FAB8CC" stroke-width="3"/>
<path d="M1184.5 1574L1228.5 1596" stroke="#FAB8CC" stroke-width="3"/>
<path d="M1184.5 1584L1228.5 1606" stroke="#FAB8CC" stroke-width="3"/>
<path d="M1184.5 1594L1228.5 1616" stroke="#FAB8CC" stroke-width="3"/>
<path d="M1184.5 1604L1228.5 1626" stroke="#FAB8CC" stroke-width="3"/>
<path d="M1184.5 1614L1228.5 1636" stroke="#FAB8CC" stroke-width="3"/>
<path d="M1184.5 1624L1228.5 1646" stroke="#FAB8CC" stroke-width="3"/>
<path d="M1184.5 1634L1228.5 1656" stroke="#FAB8CC" stroke-width="3"/>
<path d="M1184.5 1644L1228.5 1666" stroke="#FAB8CC" stroke-width="3"/>
<path d="M1184.5 1654L1228.5 1676" stroke="#FAB8CC" stroke-width="3"/>
<path d="M1184.5 1664L1228.5 1686" stroke="#FAB8CC" stroke-width="3"/>
<path d="M1184.5 1674L1228.5 1696" stroke="#FAB8CC" stroke-width="3"/>
<path d="M1184.5 1684L1228.5 1706" stroke="#FAB8CC" stroke-width="3"/>
<path d="M1184.5 1694L1228.5 1716" stroke="#FAB8CC" stroke-width="3"/>
<path d="M1184.5 1704L1228.5 1726" stroke="#FAB8CC" stroke-width="3"/>
<path d="M1184.5 1714L1228.5 1736" stroke="#FAB8CC" stroke-width="3"/>
<path d="M1184.5 1724L1228.5 1746" stroke="#FAB8CC" stroke-width="3"/>
<path d="M1184.5 1734L1228.5 1756" stroke="#FAB8CC" stroke-width="3"/>
<path d="M1184.5 1744L1228.5 1766" stroke="#FAB8CC" stroke-width="3"/>
<path d="M1184.5 1754L1228.5 1776" stroke="#FAB8CC" stroke-width="3"/>
<path d="M1184.5 1764L1228.5 1786" stroke="#FAB8CC" stroke-width="3"/>
<path d="M1184.5 1774L1228.5 1796" stroke="#FAB8CC" stroke-width="3"/>
<path d="M1184.5 1784L1228.5 1806" stroke="#FAB8CC" stroke-width="3"/>
<path d="M1184.5 1794L1228.5 1816" stroke="#FAB8CC" stroke-width="3"/>
<path d="M1184.5 1804L1228.5 1826" stroke="#FAB8CC" stroke-width="3"/>
<path d="M1184.5 1814L1228.5 1836" stroke="#FAB8CC" stroke-width="3"/>
<path d="M1184.5 1824L1228.5 1846" stroke="#FAB8CC" stroke-width="3"/>
<path d="M1184.5 1834L1228.5 1856" stroke="#FAB8CC" stroke-width="3"/>
<path d="M1184.5 1844L1228.5 1866" stroke="#FAB8CC" stroke-width="3"/>
<path d="M1184.5 1854L1228.5 1876" stroke="#FAB8CC" stroke-width="3"/>
<path d="M1184.5 1864L1228.5 1886" stroke="#FAB8CC" stroke-width="3"/>
<path d="M1184.5 1874L1228.5 1896" stroke="#FAB8CC" stroke-width="3"/>
<path d="M1184.5 1884L1228.5 1906" stroke="#FAB8CC" stroke-width="3"/>
<path d="M1184.5 1894L1228.5 1916" stroke="#FAB8CC" stroke-width="3"/>
<path d="M1184.5 1904L1228.5 1926" stroke="#FAB8CC" stroke-width="3"/>
<path d="M1184.5 1914L1228.5 1936" stroke="#FAB8CC" stroke-width="3"/>
<path d="M1184.5 1924L1228.5 1946" stroke="#FAB8CC" stroke-width="3"/>
<path d="M1184.5 1934L1228.5 1956" stroke="#FAB8CC" stroke-width="3"/>
<path d="M1184.5 1944L1228.5 1966" stroke="#FAB8CC" stroke-width="3"/>
<path d="M1184.5 1954L1228.5 1976" stroke="#FAB8CC" stroke-width="3"/>
<path d="M1184.5 1964L1228.5 1986" stroke="#FAB8CC" stroke-width="3"/>
<path d="M1184.5 1974L1228.5 1996" stroke="#FAB8CC" stroke-width="3"/>
<path d="M1184.5 1984L1228.5 2006" stroke="#FAB8CC" stroke-width="3"/>
<path d="M1184.5 1994L1228.5 2016" stroke="#FAB8CC" stroke-width="3"/>
<path d="M1184.5 2004L1228.5 2026" stroke="#FAB8CC" stroke-width="3"/>
<path d="M1184.5 2014L1228.5 2036" stroke="#FAB8CC" stroke-width="3"/>
<path d="M1184.5 2024L1228.5 2046" stroke="#FAB8CC" stroke-width="3"/>
<path d="M1184.5 2034L1228.5 2056" stroke="#FAB8CC" stroke-width="3"/>
<path d="M1184.5 2044L1228.5 2066" stroke="#FAB8CC" stroke-width="3"/>
<path d="M1184.5 2054L1228.5 2076" stroke="#FAB8CC" stroke-width="3"/>
<path d="M1184.5 2064L1228.5 2086" stroke="#FAB8CC" stroke-width="3"/>
<path d="M1184.5 2074L1228.5 2096" stroke="#FAB8CC" stroke-width="3"/>
<path d="M1184.5 2084L1228.5 2106" stroke="#FAB8CC" stroke-width="3"/>
<path d="M1184.5 2094L1228.5 2116" stroke="#FAB8CC" stroke-width="3"/>
<path d="M1184.5 2104L1228.5 2126" stroke="#FAB8CC" stroke-width="3"/>
<path d="M1184.5 2114L1228.5 2136" stroke="#FAB8CC" stroke-width="3"/>
<path d="M1184.5 2124L1228.5 2146" stroke="#FAB8CC" stroke-width="3"/>
<path d="M1184.5 2134L1228.5 2156" stroke="#FAB8CC" stroke-width="3"/>
<path d="M1184.5 2144L1228.5 2166" stroke="#FAB8CC" stroke-width="3"/>
<path d="M1184.5 2154L1228.5 2176" stroke="#FAB8CC" stroke-width="3"/>
<path d="M1184.5 2164L1228.5 2186" stroke="#FAB8CC" stroke-width="3"/>
<path d="M1184.5 2174L1228.5 2196" stroke="#FAB8CC" stroke-width="3"/>
<path d="M1184.5 2184L1228.5 2206" stroke="#FAB8CC" stroke-width="3"/>
<path d="M1184.5 2194L1228.5 2216" stroke="#FAB8CC" stroke-width="3"/>
<path d="M1184.5 2204L1228.5 2226" stroke="#FAB8CC" stroke-width="3"/>
<path d="M1184.5 2214L1228.5 2236" stroke="#FAB8CC" stroke-width="3"/>
<path d="M1184.5 2224L1228.5 2246" stroke="#FAB8CC" stroke-width="3"/>
<path d="M1184.5 2234L1228.5 2256" stroke="#FAB8CC" stroke-width="3"/>
</g>
<rect x="1184" y="-2" width="35" height="2562" stroke="#FAB8CC" stroke-width="2"/>
</g>
<g opacity="0.8">
<g clip-path="url(#clip1_1224_1264)">
<path d="M1.5 -6L45.5 16" stroke="#FAB8CC" stroke-width="3"/>
<path d="M1.5 4L45.5 26" stroke="#FAB8CC" stroke-width="3"/>
<path d="M1.5 14L45.5 36" stroke="#FAB8CC" stroke-width="3"/>
<path d="M1.5 24L45.5 46" stroke="#FAB8CC" stroke-width="3"/>
<path d="M1.5 34L45.5 56" stroke="#FAB8CC" stroke-width="3"/>
<path d="M1.5 44L45.5 66" stroke="#FAB8CC" stroke-width="3"/>
<path d="M1.5 54L45.5 76" stroke="#FAB8CC" stroke-width="3"/>
<path d="M1.5 64L45.5 86" stroke="#FAB8CC" stroke-width="3"/>
<path d="M1.5 74L45.5 96" stroke="#FAB8CC" stroke-width="3"/>
<path d="M1.5 84L45.5 106" stroke="#FAB8CC" stroke-width="3"/>
<path d="M1.5 94L45.5 116" stroke="#FAB8CC" stroke-width="3"/>
<path d="M1.5 104L45.5 126" stroke="#FAB8CC" stroke-width="3"/>
<path d="M1.5 114L45.5 136" stroke="#FAB8CC" stroke-width="3"/>
<path d="M1.5 124L45.5 146" stroke="#FAB8CC" stroke-width="3"/>
<path d="M1.5 134L45.5 156" stroke="#FAB8CC" stroke-width="3"/>
<path d="M1.5 144L45.5 166" stroke="#FAB8CC" stroke-width="3"/>
<path d="M1.5 154L45.5 176" stroke="#FAB8CC" stroke-width="3"/>
<path d="M1.5 164L45.5 186" stroke="#FAB8CC" stroke-width="3"/>
<path d="M1.5 174L45.5 196" stroke="#FAB8CC" stroke-width="3"/>
<path d="M1.5 184L45.5 206" stroke="#FAB8CC" stroke-width="3"/>
<path d="M1.5 194L45.5 216" stroke="#FAB8CC" stroke-width="3"/>
<path d="M1.5 204L45.5 226" stroke="#FAB8CC" stroke-width="3"/>
<path d="M1.5 214L45.5 236" stroke="#FAB8CC" stroke-width="3"/>
<path d="M1.5 224L45.5 246" stroke="#FAB8CC" stroke-width="3"/>
<path d="M1.5 234L45.5 256" stroke="#FAB8CC" stroke-width="3"/>
<path d="M1.5 244L45.5 266" stroke="#FAB8CC" stroke-width="3"/>
<path d="M1.5 254L45.5 276" stroke="#FAB8CC" stroke-width="3"/>
<path d="M1.5 264L45.5 286" stroke="#FAB8CC" stroke-width="3"/>
<path d="M1.5 274L45.5 296" stroke="#FAB8CC" stroke-width="3"/>
<path d="M1.5 284L45.5 306" stroke="#FAB8CC" stroke-width="3"/>
<path d="M1.5 294L45.5 316" stroke="#FAB8CC" stroke-width="3"/>
<path d="M1.5 304L45.5 326" stroke="#FAB8CC" stroke-width="3"/>
<path d="M1.5 314L45.5 336" stroke="#FAB8CC" stroke-width="3"/>
<path d="M1.5 324L45.5 346" stroke="#FAB8CC" stroke-width="3"/>
<path d="M1.5 334L45.5 356" stroke="#FAB8CC" stroke-width="3"/>
<path d="M1.5 344L45.5 366" stroke="#FAB8CC" stroke-width="3"/>
<path d="M1.5 354L45.5 376" stroke="#FAB8CC" stroke-width="3"/>
<path d="M1.5 364L45.5 386" stroke="#FAB8CC" stroke-width="3"/>
<path d="M1.5 374L45.5 396" stroke="#FAB8CC" stroke-width="3"/>
<path d="M1.5 384L45.5 406" stroke="#FAB8CC" stroke-width="3"/>
<path d="M1.5 394L45.5 416" stroke="#FAB8CC" stroke-width="3"/>
<path d="M1.5 404L45.5 426" stroke="#FAB8CC" stroke-width="3"/>
<path d="M1.5 414L45.5 436" stroke="#FAB8CC" stroke-width="3"/>
<path d="M1.5 424L45.5 446" stroke="#FAB8CC" stroke-width="3"/>
<path d="M1.5 434L45.5 456" stroke="#FAB8CC" stroke-width="3"/>
<path d="M1.5 444L45.5 466" stroke="#FAB8CC" stroke-width="3"/>
<path d="M1.5 454L45.5 476" stroke="#FAB8CC" stroke-width="3"/>
<path d="M1.5 464L45.5 486" stroke="#FAB8CC" stroke-width="3"/>
<path d="M1.5 474L45.5 496" stroke="#FAB8CC" stroke-width="3"/>
<path d="M1.5 484L45.5 506" stroke="#FAB8CC" stroke-width="3"/>
<path d="M1.5 494L45.5 516" stroke="#FAB8CC" stroke-width="3"/>
<path d="M1.5 504L45.5 526" stroke="#FAB8CC" stroke-width="3"/>
<path d="M1.5 514L45.5 536" stroke="#FAB8CC" stroke-width="3"/>
<path d="M1.5 524L45.5 546" stroke="#FAB8CC" stroke-width="3"/>
<path d="M1.5 534L45.5 556" stroke="#FAB8CC" stroke-width="3"/>
<path d="M1.5 544L45.5 566" stroke="#FAB8CC" stroke-width="3"/>
<path d="M1.5 554L45.5 576" stroke="#FAB8CC" stroke-width="3"/>
<path d="M1.5 564L45.5 586" stroke="#FAB8CC" stroke-width="3"/>
<path d="M1.5 574L45.5 596" stroke="#FAB8CC" stroke-width="3"/>
<path d="M1.5 584L45.5 606" stroke="#FAB8CC" stroke-width="3"/>
<path d="M1.5 594L45.5 616" stroke="#FAB8CC" stroke-width="3"/>
<path d="M1.5 604L45.5 626" stroke="#FAB8CC" stroke-width="3"/>
<path d="M1.5 614L45.5 636" stroke="#FAB8CC" stroke-width="3"/>
<path d="M1.5 624L45.5 646" stroke="#FAB8CC" stroke-width="3"/>
<path d="M1.5 634L45.5 656" stroke="#FAB8CC" stroke-width="3"/>
<path d="M1.5 644L45.5 666" stroke="#FAB8CC" stroke-width="3"/>
<path d="M1.5 654L45.5 676" stroke="#FAB8CC" stroke-width="3"/>
<path d="M1.5 664L45.5 686" stroke="#FAB8CC" stroke-width="3"/>
<path d="M1.5 674L45.5 696" stroke="#FAB8CC" stroke-width="3"/>
<path d="M1.5 684L45.5 706" stroke="#FAB8CC" stroke-width="3"/>
<path d="M1.5 694L45.5 716" stroke="#FAB8CC" stroke-width="3"/>
<path d="M1.5 704L45.5 726" stroke="#FAB8CC" stroke-width="3"/>
<path d="M1.5 714L45.5 736" stroke="#FAB8CC" stroke-width="3"/>
<path d="M1.5 724L45.5 746" stroke="#FAB8CC" stroke-width="3"/>
<path d="M1.5 734L45.5 756" stroke="#FAB8CC" stroke-width="3"/>
<path d="M1.5 744L45.5 766" stroke="#FAB8CC" stroke-width="3"/>
<path d="M1.5 754L45.5 776" stroke="#FAB8CC" stroke-width="3"/>
<path d="M1.5 764L45.5 786" stroke="#FAB8CC" stroke-width="3"/>
<path d="M1.5 774L45.5 796" stroke="#FAB8CC" stroke-width="3"/>
<path d="M1.5 784L45.5 806" stroke="#FAB8CC" stroke-width="3"/>
<path d="M1.5 794L45.5 816" stroke="#FAB8CC" stroke-width="3"/>
<path d="M1.5 804L45.5 826" stroke="#FAB8CC" stroke-width="3"/>
<path d="M1.5 814L45.5 836" stroke="#FAB8CC" stroke-width="3"/>
<path d="M1.5 824L45.5 846" stroke="#FAB8CC" stroke-width="3"/>
<path d="M1.5 834L45.5 856" stroke="#FAB8CC" stroke-width="3"/>
<path d="M1.5 844L45.5 866" stroke="#FAB8CC" stroke-width="3"/>
<path d="M1.5 854L45.5 876" stroke="#FAB8CC" stroke-width="3"/>
<path d="M1.5 864L45.5 886" stroke="#FAB8CC" stroke-width="3"/>
<path d="M1.5 874L45.5 896" stroke="#FAB8CC" stroke-width="3"/>
<path d="M1.5 884L45.5 906" stroke="#FAB8CC" stroke-width="3"/>
<path d="M1.5 894L45.5 916" stroke="#FAB8CC" stroke-width="3"/>
<path d="M1.5 904L45.5 926" stroke="#FAB8CC" stroke-width="3"/>
<path d="M1.5 914L45.5 936" stroke="#FAB8CC" stroke-width="3"/>
<path d="M1.5 924L45.5 946" stroke="#FAB8CC" stroke-width="3"/>
<path d="M1.5 934L45.5 956" stroke="#FAB8CC" stroke-width="3"/>
<path d="M1.5 944L45.5 966" stroke="#FAB8CC" stroke-width="3"/>
<path d="M1.5 954L45.5 976" stroke="#FAB8CC" stroke-width="3"/>
<path d="M1.5 964L45.5 986" stroke="#FAB8CC" stroke-width="3"/>
<path d="M1.5 974L45.5 996" stroke="#FAB8CC" stroke-width="3"/>
<path d="M1.5 984L45.5 1006" stroke="#FAB8CC" stroke-width="3"/>
<path d="M1.5 994L45.5 1016" stroke="#FAB8CC" stroke-width="3"/>
<path d="M1.5 1004L45.5 1026" stroke="#FAB8CC" stroke-width="3"/>
<path d="M1.5 1014L45.5 1036" stroke="#FAB8CC" stroke-width="3"/>
<path d="M1.5 1024L45.5 1046" stroke="#FAB8CC" stroke-width="3"/>
<path d="M1.5 1034L45.5 1056" stroke="#FAB8CC" stroke-width="3"/>
<path d="M1.5 1044L45.5 1066" stroke="#FAB8CC" stroke-width="3"/>
<path d="M1.5 1054L45.5 1076" stroke="#FAB8CC" stroke-width="3"/>
<path d="M1.5 1064L45.5 1086" stroke="#FAB8CC" stroke-width="3"/>
<path d="M1.5 1074L45.5 1096" stroke="#FAB8CC" stroke-width="3"/>
<path d="M1.5 1084L45.5 1106" stroke="#FAB8CC" stroke-width="3"/>
<path d="M1.5 1094L45.5 1116" stroke="#FAB8CC" stroke-width="3"/>
<path d="M1.5 1104L45.5 1126" stroke="#FAB8CC" stroke-width="3"/>
<path d="M1.5 1114L45.5 1136" stroke="#FAB8CC" stroke-width="3"/>
<path d="M1.5 1124L45.5 1146" stroke="#FAB8CC" stroke-width="3"/>
<path d="M1.5 1134L45.5 1156" stroke="#FAB8CC" stroke-width="3"/>
<path d="M1.5 1144L45.5 1166" stroke="#FAB8CC" stroke-width="3"/>
<path d="M1.5 1154L45.5 1176" stroke="#FAB8CC" stroke-width="3"/>
<path d="M1.5 1164L45.5 1186" stroke="#FAB8CC" stroke-width="3"/>
<path d="M1.5 1174L45.5 1196" stroke="#FAB8CC" stroke-width="3"/>
<path d="M1.5 1184L45.5 1206" stroke="#FAB8CC" stroke-width="3"/>
<path d="M1.5 1194L45.5 1216" stroke="#FAB8CC" stroke-width="3"/>
<path d="M1.5 1204L45.5 1226" stroke="#FAB8CC" stroke-width="3"/>
<path d="M1.5 1214L45.5 1236" stroke="#FAB8CC" stroke-width="3"/>
<path d="M1.5 1224L45.5 1246" stroke="#FAB8CC" stroke-width="3"/>
<path d="M1.5 1234L45.5 1256" stroke="#FAB8CC" stroke-width="3"/>
<path d="M1.5 1244L45.5 1266" stroke="#FAB8CC" stroke-width="3"/>
<path d="M1.5 1254L45.5 1276" stroke="#FAB8CC" stroke-width="3"/>
<path d="M1.5 1264L45.5 1286" stroke="#FAB8CC" stroke-width="3"/>
<path d="M1.5 1274L45.5 1296" stroke="#FAB8CC" stroke-width="3"/>
<path d="M1.5 1284L45.5 1306" stroke="#FAB8CC" stroke-width="3"/>
<path d="M1.5 1294L45.5 1316" stroke="#FAB8CC" stroke-width="3"/>
<path d="M1.5 1304L45.5 1326" stroke="#FAB8CC" stroke-width="3"/>
<path d="M1.5 1314L45.5 1336" stroke="#FAB8CC" stroke-width="3"/>
<path d="M1.5 1324L45.5 1346" stroke="#FAB8CC" stroke-width="3"/>
<path d="M1.5 1334L45.5 1356" stroke="#FAB8CC" stroke-width="3"/>
<path d="M1.5 1344L45.5 1366" stroke="#FAB8CC" stroke-width="3"/>
<path d="M1.5 1354L45.5 1376" stroke="#FAB8CC" stroke-width="3"/>
<path d="M1.5 1364L45.5 1386" stroke="#FAB8CC" stroke-width="3"/>
<path d="M1.5 1374L45.5 1396" stroke="#FAB8CC" stroke-width="3"/>
<path d="M1.5 1384L45.5 1406" stroke="#FAB8CC" stroke-width="3"/>
<path d="M1.5 1394L45.5 1416" stroke="#FAB8CC" stroke-width="3"/>
<path d="M1.5 1404L45.5 1426" stroke="#FAB8CC" stroke-width="3"/>
<path d="M1.5 1414L45.5 1436" stroke="#FAB8CC" stroke-width="3"/>
<path d="M1.5 1424L45.5 1446" stroke="#FAB8CC" stroke-width="3"/>
<path d="M1.5 1434L45.5 1456" stroke="#FAB8CC" stroke-width="3"/>
<path d="M1.5 1444L45.5 1466" stroke="#FAB8CC" stroke-width="3"/>
<path d="M1.5 1454L45.5 1476" stroke="#FAB8CC" stroke-width="3"/>
<path d="M1.5 1464L45.5 1486" stroke="#FAB8CC" stroke-width="3"/>
<path d="M1.5 1474L45.5 1496" stroke="#FAB8CC" stroke-width="3"/>
<path d="M1.5 1484L45.5 1506" stroke="#FAB8CC" stroke-width="3"/>
<path d="M1.5 1494L45.5 1516" stroke="#FAB8CC" stroke-width="3"/>
<path d="M1.5 1504L45.5 1526" stroke="#FAB8CC" stroke-width="3"/>
<path d="M1.5 1514L45.5 1536" stroke="#FAB8CC" stroke-width="3"/>
<path d="M1.5 1524L45.5 1546" stroke="#FAB8CC" stroke-width="3"/>
<path d="M1.5 1534L45.5 1556" stroke="#FAB8CC" stroke-width="3"/>
<path d="M1.5 1544L45.5 1566" stroke="#FAB8CC" stroke-width="3"/>
<path d="M1.5 1554L45.5 1576" stroke="#FAB8CC" stroke-width="3"/>
<path d="M1.5 1564L45.5 1586" stroke="#FAB8CC" stroke-width="3"/>
<path d="M1.5 1574L45.5 1596" stroke="#FAB8CC" stroke-width="3"/>
<path d="M1.5 1584L45.5 1606" stroke="#FAB8CC" stroke-width="3"/>
<path d="M1.5 1594L45.5 1616" stroke="#FAB8CC" stroke-width="3"/>
<path d="M1.5 1604L45.5 1626" stroke="#FAB8CC" stroke-width="3"/>
<path d="M1.5 1614L45.5 1636" stroke="#FAB8CC" stroke-width="3"/>
<path d="M1.5 1624L45.5 1646" stroke="#FAB8CC" stroke-width="3"/>
<path d="M1.5 1634L45.5 1656" stroke="#FAB8CC" stroke-width="3"/>
<path d="M1.5 1644L45.5 1666" stroke="#FAB8CC" stroke-width="3"/>
<path d="M1.5 1654L45.5 1676" stroke="#FAB8CC" stroke-width="3"/>
<path d="M1.5 1664L45.5 1686" stroke="#FAB8CC" stroke-width="3"/>
<path d="M1.5 1674L45.5 1696" stroke="#FAB8CC" stroke-width="3"/>
<path d="M1.5 1684L45.5 1706" stroke="#FAB8CC" stroke-width="3"/>
<path d="M1.5 1694L45.5 1716" stroke="#FAB8CC" stroke-width="3"/>
<path d="M1.5 1704L45.5 1726" stroke="#FAB8CC" stroke-width="3"/>
<path d="M1.5 1714L45.5 1736" stroke="#FAB8CC" stroke-width="3"/>
<path d="M1.5 1724L45.5 1746" stroke="#FAB8CC" stroke-width="3"/>
<path d="M1.5 1734L45.5 1756" stroke="#FAB8CC" stroke-width="3"/>
<path d="M1.5 1744L45.5 1766" stroke="#FAB8CC" stroke-width="3"/>
<path d="M1.5 1754L45.5 1776" stroke="#FAB8CC" stroke-width="3"/>
<path d="M1.5 1764L45.5 1786" stroke="#FAB8CC" stroke-width="3"/>
<path d="M1.5 1774L45.5 1796" stroke="#FAB8CC" stroke-width="3"/>
<path d="M1.5 1784L45.5 1806" stroke="#FAB8CC" stroke-width="3"/>
<path d="M1.5 1794L45.5 1816" stroke="#FAB8CC" stroke-width="3"/>
<path d="M1.5 1804L45.5 1826" stroke="#FAB8CC" stroke-width="3"/>
<path d="M1.5 1814L45.5 1836" stroke="#FAB8CC" stroke-width="3"/>
<path d="M1.5 1824L45.5 1846" stroke="#FAB8CC" stroke-width="3"/>
<path d="M1.5 1834L45.5 1856" stroke="#FAB8CC" stroke-width="3"/>
<path d="M1.5 1844L45.5 1866" stroke="#FAB8CC" stroke-width="3"/>
<path d="M1.5 1854L45.5 1876" stroke="#FAB8CC" stroke-width="3"/>
<path d="M1.5 1864L45.5 1886" stroke="#FAB8CC" stroke-width="3"/>
<path d="M1.5 1874L45.5 1896" stroke="#FAB8CC" stroke-width="3"/>
<path d="M1.5 1884L45.5 1906" stroke="#FAB8CC" stroke-width="3"/>
<path d="M1.5 1894L45.5 1916" stroke="#FAB8CC" stroke-width="3"/>
<path d="M1.5 1904L45.5 1926" stroke="#FAB8CC" stroke-width="3"/>
<path d="M1.5 1914L45.5 1936" stroke="#FAB8CC" stroke-width="3"/>
<path d="M1.5 1924L45.5 1946" stroke="#FAB8CC" stroke-width="3"/>
<path d="M1.5 1934L45.5 1956" stroke="#FAB8CC" stroke-width="3"/>
<path d="M1.5 1944L45.5 1966" stroke="#FAB8CC" stroke-width="3"/>
<path d="M1.5 1954L45.5 1976" stroke="#FAB8CC" stroke-width="3"/>
<path d="M1.5 1964L45.5 1986" stroke="#FAB8CC" stroke-width="3"/>
<path d="M1.5 1974L45.5 1996" stroke="#FAB8CC" stroke-width="3"/>
<path d="M1.5 1984L45.5 2006" stroke="#FAB8CC" stroke-width="3"/>
<path d="M1.5 1994L45.5 2016" stroke="#FAB8CC" stroke-width="3"/>
<path d="M1.5 2004L45.5 2026" stroke="#FAB8CC" stroke-width="3"/>
<path d="M1.5 2014L45.5 2036" stroke="#FAB8CC" stroke-width="3"/>
<path d="M1.5 2024L45.5 2046" stroke="#FAB8CC" stroke-width="3"/>
<path d="M1.5 2034L45.5 2056" stroke="#FAB8CC" stroke-width="3"/>
<path d="M1.5 2044L45.5 2066" stroke="#FAB8CC" stroke-width="3"/>
<path d="M1.5 2054L45.5 2076" stroke="#FAB8CC" stroke-width="3"/>
<path d="M1.5 2064L45.5 2086" stroke="#FAB8CC" stroke-width="3"/>
<path d="M1.5 2074L45.5 2096" stroke="#FAB8CC" stroke-width="3"/>
<path d="M1.5 2084L45.5 2106" stroke="#FAB8CC" stroke-width="3"/>
<path d="M1.5 2094L45.5 2116" stroke="#FAB8CC" stroke-width="3"/>
<path d="M1.5 2104L45.5 2126" stroke="#FAB8CC" stroke-width="3"/>
<path d="M1.5 2114L45.5 2136" stroke="#FAB8CC" stroke-width="3"/>
<path d="M1.5 2124L45.5 2146" stroke="#FAB8CC" stroke-width="3"/>
<path d="M1.5 2134L45.5 2156" stroke="#FAB8CC" stroke-width="3"/>
<path d="M1.5 2144L45.5 2166" stroke="#FAB8CC" stroke-width="3"/>
<path d="M1.5 2154L45.5 2176" stroke="#FAB8CC" stroke-width="3"/>
</g>
<rect x="1" y="-2" width="35" height="2562" stroke="#FAB8CC" stroke-width="2"/>
</g>
<rect opacity="0.2" x="223.5" y="0.5" width="172" height="933" fill="url(#paint0_linear_1224_1264)" stroke="url(#paint1_linear_1224_1264)"/>
<rect opacity="0.2" x="423.5" y="0.5" width="172" height="933" fill="url(#paint2_linear_1224_1264)" stroke="url(#paint3_linear_1224_1264)"/>
<rect opacity="0.2" x="623.5" y="0.5" width="172" height="933" fill="url(#paint4_linear_1224_1264)" stroke="url(#paint5_linear_1224_1264)"/>
<rect opacity="0.2" x="823.5" y="0.5" width="172" height="933" fill="url(#paint6_linear_1224_1264)" stroke="url(#paint7_linear_1224_1264)"/>
<defs>
<linearGradient id="paint0_linear_1224_1264" x1="309.5" y1="0" x2="309.5" y2="934" gradientUnits="userSpaceOnUse">
<stop stop-color="#FAB8CC"/>
<stop offset="1" stop-color="#FAB8CC" stop-opacity="0"/>
</linearGradient>
<linearGradient id="paint1_linear_1224_1264" x1="309.5" y1="0" x2="309.5" y2="934" gradientUnits="userSpaceOnUse">
<stop stop-color="#F24E80"/>
<stop offset="1" stop-color="#F24E80" stop-opacity="0"/>
</linearGradient>
<linearGradient id="paint2_linear_1224_1264" x1="509.5" y1="0" x2="509.5" y2="934" gradientUnits="userSpaceOnUse">
<stop stop-color="#FAB8CC"/>
<stop offset="1" stop-color="#FAB8CC" stop-opacity="0"/>
</linearGradient>
<linearGradient id="paint3_linear_1224_1264" x1="509.5" y1="0" x2="509.5" y2="934" gradientUnits="userSpaceOnUse">
<stop stop-color="#F24E80"/>
<stop offset="1" stop-color="#F24E80" stop-opacity="0"/>
</linearGradient>
<linearGradient id="paint4_linear_1224_1264" x1="709.5" y1="0" x2="709.5" y2="934" gradientUnits="userSpaceOnUse">
<stop stop-color="#FAB8CC"/>
<stop offset="1" stop-color="#FAB8CC" stop-opacity="0"/>
</linearGradient>
<linearGradient id="paint5_linear_1224_1264" x1="709.5" y1="0" x2="709.5" y2="934" gradientUnits="userSpaceOnUse">
<stop stop-color="#F24E80"/>
<stop offset="1" stop-color="#F24E80" stop-opacity="0"/>
</linearGradient>
<linearGradient id="paint6_linear_1224_1264" x1="909.5" y1="0" x2="909.5" y2="934" gradientUnits="userSpaceOnUse">
<stop stop-color="#FAB8CC"/>
<stop offset="1" stop-color="#FAB8CC" stop-opacity="0"/>
</linearGradient>
<linearGradient id="paint7_linear_1224_1264" x1="909.5" y1="0" x2="909.5" y2="934" gradientUnits="userSpaceOnUse">
<stop stop-color="#F24E80"/>
<stop offset="1" stop-color="#F24E80" stop-opacity="0"/>
</linearGradient>
<clipPath id="clip0_1224_1264">
<rect x="1183" y="-3" width="37" height="2564" fill="white"/>
</clipPath>
<clipPath id="clip1_1224_1264">
<rect y="-3" width="37" height="2564" fill="white"/>
</clipPath>
</defs>
</svg>
